<mxfile host="app.diagrams.net" agent="Mozilla/5.0 (Windows NT 10.0; Win64; x64) AppleWebKit/537.36 (KHTML, like Gecko) Chrome/129.0.0.0 Safari/537.36 Edg/129.0.0.0" version="27.0.4">
  <diagram id="C5RBs43oDa-KdzZeNtuy" name="Page-1">
    <mxGraphModel dx="988" dy="1752" grid="1" gridSize="10" guides="1" tooltips="1" connect="1" arrows="1" fold="1" page="1" pageScale="1" pageWidth="827" pageHeight="1169" math="0" shadow="0">
      <root>
        <mxCell id="WIyWlLk6GJQsqaUBKTNV-0" />
        <mxCell id="WIyWlLk6GJQsqaUBKTNV-1" parent="WIyWlLk6GJQsqaUBKTNV-0" />
        <mxCell id="CGJRMr3i04eff4zQKk5s-9" style="edgeStyle=orthogonalEdgeStyle;rounded=0;orthogonalLoop=1;jettySize=auto;html=1;exitX=0.5;exitY=1;exitDx=0;exitDy=0;exitPerimeter=0;entryX=0.5;entryY=0;entryDx=0;entryDy=0;" edge="1" parent="WIyWlLk6GJQsqaUBKTNV-1" source="CGJRMr3i04eff4zQKk5s-0" target="CGJRMr3i04eff4zQKk5s-1">
          <mxGeometry relative="1" as="geometry" />
        </mxCell>
        <mxCell id="CGJRMr3i04eff4zQKk5s-0" value="&lt;font style=&quot;font-size: 20px;&quot;&gt;开始&lt;/font&gt;" style="strokeWidth=2;html=1;shape=mxgraph.flowchart.terminator;whiteSpace=wrap;" vertex="1" parent="WIyWlLk6GJQsqaUBKTNV-1">
          <mxGeometry x="170" y="-110" width="100" height="60" as="geometry" />
        </mxCell>
        <mxCell id="CGJRMr3i04eff4zQKk5s-10" value="" style="edgeStyle=orthogonalEdgeStyle;rounded=0;orthogonalLoop=1;jettySize=auto;html=1;" edge="1" parent="WIyWlLk6GJQsqaUBKTNV-1" source="CGJRMr3i04eff4zQKk5s-1" target="CGJRMr3i04eff4zQKk5s-2">
          <mxGeometry relative="1" as="geometry" />
        </mxCell>
        <mxCell id="CGJRMr3i04eff4zQKk5s-1" value="&lt;font style=&quot;font-size: 17px;&quot;&gt;用户访问量子门模拟模块&lt;/font&gt;" style="rounded=0;whiteSpace=wrap;html=1;" vertex="1" parent="WIyWlLk6GJQsqaUBKTNV-1">
          <mxGeometry x="160" y="-20" width="120" height="60" as="geometry" />
        </mxCell>
        <mxCell id="CGJRMr3i04eff4zQKk5s-11" value="" style="edgeStyle=orthogonalEdgeStyle;rounded=0;orthogonalLoop=1;jettySize=auto;html=1;" edge="1" parent="WIyWlLk6GJQsqaUBKTNV-1" source="CGJRMr3i04eff4zQKk5s-2" target="CGJRMr3i04eff4zQKk5s-3">
          <mxGeometry relative="1" as="geometry" />
        </mxCell>
        <mxCell id="CGJRMr3i04eff4zQKk5s-2" value="&lt;span style=&quot;font-size: 17px;&quot;&gt;页面初始化&lt;/span&gt;" style="rounded=0;whiteSpace=wrap;html=1;" vertex="1" parent="WIyWlLk6GJQsqaUBKTNV-1">
          <mxGeometry x="160" y="80" width="120" height="60" as="geometry" />
        </mxCell>
        <mxCell id="CGJRMr3i04eff4zQKk5s-12" value="" style="edgeStyle=orthogonalEdgeStyle;rounded=0;orthogonalLoop=1;jettySize=auto;html=1;" edge="1" parent="WIyWlLk6GJQsqaUBKTNV-1" source="CGJRMr3i04eff4zQKk5s-3" target="CGJRMr3i04eff4zQKk5s-4">
          <mxGeometry relative="1" as="geometry" />
        </mxCell>
        <mxCell id="CGJRMr3i04eff4zQKk5s-3" value="&lt;span style=&quot;font-size: 17px;&quot;&gt;通过鼠标滚动选择可&lt;/span&gt;&lt;span style=&quot;background-color: transparent; color: light-dark(rgb(0, 0, 0), rgb(255, 255, 255)); font-size: 17px;&quot;&gt;视&lt;/span&gt;&lt;span style=&quot;background-color: transparent; color: light-dark(rgb(0, 0, 0), rgb(255, 255, 255)); font-size: 17px;&quot;&gt;化&lt;/span&gt;&lt;div&gt;&lt;div&gt;&lt;div&gt;&lt;span style=&quot;font-size: 17px;&quot;&gt;内容&lt;/span&gt;&lt;/div&gt;&lt;/div&gt;&lt;/div&gt;" style="rounded=0;whiteSpace=wrap;html=1;" vertex="1" parent="WIyWlLk6GJQsqaUBKTNV-1">
          <mxGeometry x="160" y="170" width="120" height="60" as="geometry" />
        </mxCell>
        <mxCell id="CGJRMr3i04eff4zQKk5s-13" value="" style="edgeStyle=orthogonalEdgeStyle;rounded=0;orthogonalLoop=1;jettySize=auto;html=1;" edge="1" parent="WIyWlLk6GJQsqaUBKTNV-1" source="CGJRMr3i04eff4zQKk5s-4" target="CGJRMr3i04eff4zQKk5s-6">
          <mxGeometry relative="1" as="geometry" />
        </mxCell>
        <mxCell id="CGJRMr3i04eff4zQKk5s-18" value="&lt;font style=&quot;font-size: 15px;&quot;&gt;否&lt;/font&gt;" style="edgeLabel;html=1;align=center;verticalAlign=middle;resizable=0;points=[];" vertex="1" connectable="0" parent="CGJRMr3i04eff4zQKk5s-13">
          <mxGeometry x="-0.2578" y="2" relative="1" as="geometry">
            <mxPoint as="offset" />
          </mxGeometry>
        </mxCell>
        <mxCell id="CGJRMr3i04eff4zQKk5s-14" value="" style="edgeStyle=orthogonalEdgeStyle;rounded=0;orthogonalLoop=1;jettySize=auto;html=1;" edge="1" parent="WIyWlLk6GJQsqaUBKTNV-1" source="CGJRMr3i04eff4zQKk5s-4" target="CGJRMr3i04eff4zQKk5s-5">
          <mxGeometry relative="1" as="geometry" />
        </mxCell>
        <mxCell id="CGJRMr3i04eff4zQKk5s-19" value="&lt;font style=&quot;font-size: 14px;&quot;&gt;是&lt;/font&gt;" style="edgeLabel;html=1;align=center;verticalAlign=middle;resizable=0;points=[];" vertex="1" connectable="0" parent="CGJRMr3i04eff4zQKk5s-14">
          <mxGeometry x="-0.456" y="-2" relative="1" as="geometry">
            <mxPoint as="offset" />
          </mxGeometry>
        </mxCell>
        <mxCell id="CGJRMr3i04eff4zQKk5s-4" value="是否滚动&lt;div&gt;到合适位置&lt;/div&gt;" style="rhombus;whiteSpace=wrap;html=1;" vertex="1" parent="WIyWlLk6GJQsqaUBKTNV-1">
          <mxGeometry x="180" y="270" width="80" height="80" as="geometry" />
        </mxCell>
        <mxCell id="CGJRMr3i04eff4zQKk5s-15" value="" style="edgeStyle=orthogonalEdgeStyle;rounded=0;orthogonalLoop=1;jettySize=auto;html=1;" edge="1" parent="WIyWlLk6GJQsqaUBKTNV-1" source="CGJRMr3i04eff4zQKk5s-5" target="CGJRMr3i04eff4zQKk5s-7">
          <mxGeometry relative="1" as="geometry" />
        </mxCell>
        <mxCell id="CGJRMr3i04eff4zQKk5s-5" value="&lt;span style=&quot;font-size: 17px;&quot;&gt;显示下一内容&lt;/span&gt;" style="rounded=0;whiteSpace=wrap;html=1;" vertex="1" parent="WIyWlLk6GJQsqaUBKTNV-1">
          <mxGeometry x="160" y="400" width="120" height="60" as="geometry" />
        </mxCell>
        <mxCell id="CGJRMr3i04eff4zQKk5s-16" value="" style="rounded=0;orthogonalLoop=1;jettySize=auto;html=1;" edge="1" parent="WIyWlLk6GJQsqaUBKTNV-1" source="CGJRMr3i04eff4zQKk5s-6" target="CGJRMr3i04eff4zQKk5s-7">
          <mxGeometry relative="1" as="geometry" />
        </mxCell>
        <mxCell id="CGJRMr3i04eff4zQKk5s-6" value="&lt;span style=&quot;font-size: 17px;&quot;&gt;显示当前内容&lt;/span&gt;" style="rounded=0;whiteSpace=wrap;html=1;" vertex="1" parent="WIyWlLk6GJQsqaUBKTNV-1">
          <mxGeometry x="350" y="280" width="120" height="60" as="geometry" />
        </mxCell>
        <mxCell id="CGJRMr3i04eff4zQKk5s-17" value="" style="edgeStyle=orthogonalEdgeStyle;rounded=0;orthogonalLoop=1;jettySize=auto;html=1;" edge="1" parent="WIyWlLk6GJQsqaUBKTNV-1" source="CGJRMr3i04eff4zQKk5s-7" target="CGJRMr3i04eff4zQKk5s-8">
          <mxGeometry relative="1" as="geometry" />
        </mxCell>
        <mxCell id="CGJRMr3i04eff4zQKk5s-7" value="&lt;span style=&quot;font-size: 17px;&quot;&gt;观察可视化内容并交互&lt;/span&gt;" style="rounded=0;whiteSpace=wrap;html=1;" vertex="1" parent="WIyWlLk6GJQsqaUBKTNV-1">
          <mxGeometry x="350" y="400" width="120" height="60" as="geometry" />
        </mxCell>
        <mxCell id="CGJRMr3i04eff4zQKk5s-8" value="&lt;span style=&quot;font-size: 20px;&quot;&gt;结束&lt;/span&gt;" style="strokeWidth=2;html=1;shape=mxgraph.flowchart.terminator;whiteSpace=wrap;" vertex="1" parent="WIyWlLk6GJQsqaUBKTNV-1">
          <mxGeometry x="360" y="525" width="100" height="60" as="geometry" />
        </mxCell>
      </root>
    </mxGraphModel>
  </diagram>
</mxfile>
